<?xml version="1.0" encoding="utf-8"?>
<!-- Generator: Adobe Illustrator 16.0.0, SVG Export Plug-In . SVG Version: 6.00 Build 0)  -->
<!DOCTYPE svg PUBLIC "-//W3C//DTD SVG 1.1//EN" "http://www.w3.org/Graphics/SVG/1.1/DTD/svg11.dtd">
<svg version="1.1" id="Layer_1" xmlns="http://www.w3.org/2000/svg" xmlns:xlink="http://www.w3.org/1999/xlink" x="0px" y="0px"
	 width="628.737205875" height="159.048962055" viewBox="0 0 1000.009 252.968" enable-background="new 0 0 1000.009 252.968"
	 xml:space="preserve">
<g>
	<path fill="#24B5E9" d="M670.902,0c49.508,0,84.643,27.021,84.643,77.119c0,47.988-32.615,77.196-84.643,77.196
		c-50.896,0-84.685-28.018-84.685-77.196C586.218,28.584,619.698,0,670.902,0 M670.902,122.431
		c26.454,0,42.039-18.162,42.039-45.313c0-28.479-16.451-45.307-42.039-45.307c-26.965,0-42.164,18.211-42.164,45.307
		C628.738,103.111,643.49,122.431,670.902,122.431 M353.966,1.822h-83.252v11.604c0,10.136,5.406,20.097,19.742,20.097
		c6.361,0,53.157,0.021,53.157,0.021c22.157,0,30.136,7.188,30.136,24.952v2.55h-56.29c-41.694,0-57.085,19.3-57.085,45.6
		c0,31.848,21.314,45.846,57.225,45.846h37.408c48.975,0,59.432-24.492,59.432-56.842V58.238
		C414.438,23.387,401.53,1.822,353.966,1.822 M373.749,96.027c0,15.202-7.09,26.84-27.377,26.84h-21.166
		c-14.759,0-23.596-3.962-23.596-16.102c0-11.626,8.131-16.097,23.596-16.097h48.543V96.027z M531.649,33.363h20.639
		c14.783,0,23.642-5.232,23.642-18.84v-12.7h-58.931c-49.295,0-72.906,29.018-72.906,75.296c0,57.833,35.988,75.373,72.906,75.373
		h58.931v-12.89c0-13.348-9.25-18.69-22.606-18.69h-21.674c-23.527,0-45.24-8.411-45.24-43.792
		C486.409,46.432,502.861,33.363,531.649,33.363 M86.872,111.304c0,0-35.096-91.445-37.023-96.726
		c-2.727-7.173-6.4-12.755-19.645-12.755H0l62.064,150.669h45.21L171.36,1.822h-26.545c-11.436,0-15.823,4.891-18.658,12.086
		l-38.664,97.396H86.872z M892.546,109.931c0,0-25.693-73.37-30.418-87.194c-3.231-9.311-7.563-20.915-28.469-20.915h-47.943
		v150.669h16.216c12.277,0,20.031-5.479,20.031-18.076V29.053h0.712l46.447,123.438h43.524l46.469-123.438h0.676v105.437
		c0,10.688,5.759,18.002,20.106,18.002H1000V1.822h-44.921c-15.845,0-25.673,4.367-30.507,18.525
		c-3.106,9.221-31.273,89.583-31.273,89.583H892.546z M190.093,1.822v132.963c0,10.314,6.137,17.706,19.484,17.706h21.188V1.822
		H190.093z"/>
	<path fill="#909194" d="M71.681,251.947v-45.851l-17.698,28.537c-0.557,0.828-1.566,1.75-3.24,1.75c-1.67,0-2.683-1.012-3.24-1.856
		l-17.703-28.431v45.851h-8.052V193.68c0-2.225,1.577-4.068,3.981-4.068c1.488,0,2.691,0.73,3.432,1.942l21.582,34.273
		l21.585-34.273c0.739-1.212,1.935-1.942,3.519-1.942c2.221,0,3.893,1.75,3.893,3.979v58.357"/>
	<path fill="#909194" d="M198.137,251.956h-9.903c-2.324,0-4.267-1.951-4.267-4.171v-53.367c0-2.22,1.942-4.162,4.267-4.162h9.903
		c22.516,0,37.89,12.316,37.89,30.851C236.026,239.633,220.652,251.956,198.137,251.956 M199.531,197.757h-7.134v46.69h7.134
		c14.824,0,28.07-7.871,28.07-23.341C227.602,205.636,214.355,197.757,199.531,197.757"/>
	<rect x="259.531" y="190.256" fill="#909194" width="8.437" height="61.691"/>
	<path fill="#909194" d="M338.42,251.947l-6.398-15.841h-27.14l-6.386,15.841h-8.533l24.925-59.924
		c0.646-1.584,2.038-2.421,3.615-2.421c1.575,0,2.866,0.837,3.511,2.421l24.928,59.924 M318.503,201.833l-11.026,27.695h22.045
		L318.503,201.833z"/>
	<path fill="#909194" d="M448.12,252.417c-1.116,0-2.318-0.277-3.146-1.392l-35.761-46.312v47.233h-8.16v-58.174
		c0-2.318,1.957-4.162,4.171-4.162c1.312,0,2.42,0.367,3.255,1.481l35.66,46.222v-47.059h8.152v58.084
		C452.291,250.744,450.342,252.417,448.12,252.417"/>
	<path fill="#909194" d="M489.68,251.947c-2.311,0-4.267-1.95-4.267-4.162v-53.367c0-2.22,1.956-4.162,4.267-4.162h38.157v7.411
		h-33.993v18.804h27.697c2.039,0,3.7,1.665,3.7,3.705c0,2.037-1.661,3.612-3.7,3.612h-27.697v20.75h34.274v7.409"/>
	<polyline fill="#909194" points="578.438,197.667 578.438,251.956 570.007,251.956 570.007,197.667 549.261,197.667 
		549.261,190.256 599.2,190.256 599.2,197.667 	"/>
	<path fill="#909194" d="M676.933,249.446c-0.563,1.856-2.044,2.971-3.896,2.971c-1.841,0-3.24-1.024-3.697-2.506l-14.275-45.014
		l-14.176,45.014c-0.466,1.481-1.841,2.506-3.697,2.506c-1.951,0-3.436-1.204-3.886-2.971l-16.502-59.19h8.248l12.601,45.569
		l13.887-43.533c0.462-1.481,1.861-2.506,3.525-2.506c1.759,0,3.154,1.024,3.615,2.506l13.892,43.533l12.605-45.569h8.246"/>
	<path fill="#909194" d="M745.763,252.968c-18.155,0-31.133-13.895-31.133-31.878c0-17.864,12.978-31.765,31.133-31.765
		c18.253,0,31.127,13.9,31.127,31.765C776.89,239.073,764.016,252.968,745.763,252.968 M745.763,196.83
		c-13.435,0-22.693,10.185-22.693,24.26c0,14.192,9.259,24.37,22.693,24.37c13.429,0,22.705-10.178,22.705-24.37
		C768.468,207.015,759.191,196.83,745.763,196.83"/>
	<path fill="#909194" d="M846.273,251.947l-15.185-25.015h-19.918v25.015h-8.426v-57.529c0-2.211,1.942-4.162,4.261-4.162h26.111
		c11.863,0,19.738,8.337,19.738,18.343c0,7.962-4.729,14.824-12.776,17.236l16.017,26.112 M832.664,197.573h-21.493v22.052h21.493
		c6.301,0,11.762-3.987,11.762-11.026C844.426,201.552,838.965,197.573,832.664,197.573"/>
	<polyline fill="#909194" points="922.986,251.947 891.858,223.972 891.858,251.947 883.429,251.947 883.429,190.256 
		891.858,190.256 891.858,216.568 921.134,190.256 932.339,190.256 899.086,220.176 934.195,251.947 	"/>
	<path fill="#909194" d="M975.926,252.968c-8.154,0-16.667-1.656-24.64-4.628l1.942-6.679c7.315,2.317,15.286,3.989,22.697,3.989
		c10.287,0,15.653-3.614,15.653-8.711c0-4.632-4.167-6.941-18.526-13.621c-14.364-6.664-20.008-10.921-20.008-19.265
		c0-10.455,8.152-14.725,23.532-14.725c6.391,0,16.21,1.294,21.854,2.955l-1.291,6.855c-6.214-1.473-13.992-2.493-20.378-2.493
		c-10.843,0-15.287,2.041-15.287,7.13c0,4.997,3.24,7.14,18.437,14.082c16.022,7.323,20.098,11.025,20.098,18.628
		C1000.009,247.504,989.444,252.968,975.926,252.968"/>
	<path fill="#909194" d="M117.113,251.947c-2.316,0-4.261-1.95-4.261-4.162v-53.367c0-2.22,1.944-4.162,4.261-4.162h38.166v7.411
		h-33.996v18.804h27.697c2.047,0,3.703,1.665,3.703,3.705c0,2.037-1.656,3.612-3.703,3.612h-27.697v20.75h34.282v7.409"/>
</g>
</svg>
